<svg id="Layer_1" data-name="Layer 1" xmlns="http://www.w3.org/2000/svg" viewBox="0 0 91.82 62.55"><defs><style>.cls-1{fill:#fff;}.cls-2{fill:#0c6f53;}.cls-3{fill:#e21d39;}</style></defs><rect class="cls-1" x="59.84" y="4.14" width="18.06" height="45.91" transform="translate(41.77 95.96) rotate(-90)"/><path class="cls-2" d="M91.82,0V18.06H45.91V6.54A6.54,6.54,0,0,1,52.45,0Z"/><path class="cls-3" d="M91.82,36.13V47.65a6.53,6.53,0,0,1-6.53,6.54H45.91V36.13Z"/><rect class="cls-1" x="13.92" y="12.5" width="18.06" height="45.91" transform="translate(-12.5 58.41) rotate(-90)"/><path class="cls-2" d="M45.91,8.36V26.42H0V14.89A6.53,6.53,0,0,1,6.54,8.36Z"/><path class="cls-3" d="M45.91,44.49V56a6.54,6.54,0,0,1-6.54,6.54H0V44.49Z"/></svg>