<svg width="228" height="32" xmlns="http://www.w3.org/2000/svg" viewBox="0 0 228 32"><defs><style>.cls-1{fill:#fff;}</style></defs><path class="cls-1" d="M212,3V4.58h-2.61V12h-1.57V4.58H205.2V3Zm2.75,9h-1.55V4.84a1.87,1.87,0,0,1,2.15-2,2.11,2.11,0,0,1,2.26,1.77l1.26,5.47a.56.56,0,0,0,.6.51.57.57,0,0,0,.6-.51l1.26-5.47a2,2,0,0,1,2.2-1.77,1.89,1.89,0,0,1,2.17,2V12h-1.57v-7a.56.56,0,0,0-.62-.58.6.6,0,0,0-.65.49l-1.28,5.5a2,2,0,0,1-2.13,1.79,2,2,0,0,1-2.17-1.79L216,4.84a.59.59,0,0,0-.62-.49c-.43,0-.65.23-.65.58Z"/><path class="cls-1" d="M7.39,31.48H2.28V8.1C2.28,4.29,4.45,1.73,9,1.73c4.07,0,5.89,2.08,7.1,5.42l8.53,18.66A2,2,0,0,0,26.49,27a1.57,1.57,0,0,0,1.73-1.64V2.25h5.15V25.59c0,3.86-2.21,6.41-6.71,6.41-4.07,0-5.93-2.08-7.15-5.41L11,7.92A1.8,1.8,0,0,0,9.17,6.67,1.58,1.58,0,0,0,7.39,8.36Z"/><path class="cls-1" d="M54.76,8.62c5.72,0,8,3.2,8,7.53V26.89c0,3.29-.86,4.59-4.72,4.59H47.32c-5.42,0-7.67-2.64-7.67-7,0-4.16,2.08-6.58,7.71-6.58H58.23V16.19c0-1.77-1-3.16-3.51-3.16H41V8.62Zm3.47,17.23V21.56H47.45c-2.43,0-3.29,1-3.29,2.69S45.07,27,47.36,27H57C57.88,27,58.23,26.67,58.23,25.85Z"/><path class="cls-1" d="M81.87,8.62c7.75,0,11.52,3.68,11.52,10V31.48H88.76V18.62C88.76,15,86.68,13,81.87,13H74.38c-.39,0-.56.22-.56.65v17.8H69.23V12.17c0-2.69.91-3.55,3.2-3.55Z"/><path class="cls-1" d="M113.49,8.62c6.06,0,9.91,3.72,9.91,11.43s-3.85,11.43-9.91,11.43h-4.81c-6.11,0-9.92-3.72-9.92-11.43s3.81-11.43,9.92-11.43ZM109.11,13c-4,0-5.71,2.08-5.71,7s1.73,7,5.71,7h3.94c3.94,0,5.72-2,5.72-7s-1.78-7-5.72-7Z"/><path class="cls-1" d="M144.06,2.25c6.58,0,9.39,4.07,9.39,8.75,0,4.42-2.55,9.18-9.39,9.18H135a.64.64,0,0,0-.73.73V31.48h-5.11V19.92c0-3.29,1.38-4.63,4.59-4.63h10.52a3.78,3.78,0,0,0,4.07-4,3.67,3.67,0,0,0-4-3.9H129.08V2.25Z"/><path class="cls-1" d="M173,8.62V13h-8c-2,0-2.94,1-2.94,3v15.5H157.4V15.29c0-4.59,1.69-6.67,6.19-6.67Z"/><path class="cls-1" d="M191.13,8.62c6.06,0,9.92,3.72,9.92,11.43s-3.86,11.43-9.92,11.43h-4.81c-6.1,0-9.91-3.72-9.91-11.43s3.81-11.43,9.91-11.43ZM186.76,13c-4,0-5.72,2.08-5.72,7s1.73,7,5.72,7h3.94c3.94,0,5.71-2,5.71-7s-1.77-7-5.71-7Zm-.91-13V5.33h-4.64V0Zm10.39,0V5.33h-4.63V0Z"/></svg>